HIERARCHY
ROOT hip
{
	OFFSET 0.000000 0.000000 0.000000
	CHANNELS 6 Xposition Yposition Zposition Xrotation Zrotation Yrotation 
	JOINT abdomen
	{
		OFFSET 0.000000 3.422050 0.000000
		CHANNELS 3 Xrotation Zrotation Yrotation 
		JOINT chest
		{
			OFFSET 0.000000 8.486693 -0.6844110
			CHANNELS 3 Xrotation Zrotation Yrotation 
			JOINT neck
			{
				OFFSET 0.000000 10.26616 -0.2737640
				CHANNELS 3 Xrotation Zrotation Yrotation 
				JOINT head
				{
					OFFSET 0.000000 3.148285 0.000000
					CHANNELS 3 Xrotation Zrotation Yrotation 
					End Site
					{
						OFFSET 0.000000 3.148289 0.000000
					}
				}
			}
			JOINT lCollar
			{
				OFFSET 3.422053 6.707223 -0.8212930
				CHANNELS 3 Yrotation Zrotation Xrotation 
				JOINT lShldr
				{
					OFFSET 3.285171 0.000000 0.000000
					CHANNELS 3 Zrotation Yrotation Xrotation 
					JOINT lForeArm
					{
						OFFSET 10.12928 0.000000 0.000000
						CHANNELS 3 Yrotation Zrotation Xrotation 
						JOINT lHand
						{
							OFFSET 8.486692 0.000000 0.000000
							CHANNELS 3 Zrotation Yrotation Xrotation 
							End Site
							{
								OFFSET 4.106464 0.000000 0.000000
							}
						}
					}
				}
			}
			JOINT rCollar
			{
				OFFSET -3.558935 6.707223 -0.8212930
				CHANNELS 3 Yrotation Zrotation Xrotation 
				JOINT rShldr
				{
					OFFSET -3.148289 0.000000 0.000000
					CHANNELS 3 Zrotation Yrotation Xrotation 
					JOINT rForeArm
					{
						OFFSET -10.26616 0.000000 0.000000
						CHANNELS 3 Yrotation Zrotation Xrotation 
						JOINT rHand
						{
							OFFSET -8.349810 0.000000 0.000000
							CHANNELS 3 Zrotation Yrotation Xrotation 
							End Site
							{
								OFFSET -4.106464 0.000000 0.000000
							}
						}
					}
				}
			}
		}
	}
	JOINT lThigh
	{
		OFFSET 5.338403 -1.642589 1.368821
		CHANNELS 3 Xrotation Zrotation Yrotation 
		JOINT lShin
		{
			OFFSET -2.053232 -20.12167 0.000000
			CHANNELS 3 Xrotation Zrotation Yrotation 
			JOINT lFoot
			{
				OFFSET 0.000000 -19.30038 -1.231939
				CHANNELS 3 Xrotation Yrotation Zrotation 
				End Site
				{
					OFFSET 0.000000 -2.463878 4.653993
				}
			}
		}
	}
	JOINT rThigh
	{
		OFFSET -5.338403 -1.642589 1.368821
		CHANNELS 3 Xrotation Zrotation Yrotation 
		JOINT rShin
		{
			OFFSET 2.053232 -20.12167 0.000000
			CHANNELS 3 Xrotation Zrotation Yrotation 
			JOINT rFoot
			{
				OFFSET 0.000000 -19.30038 -1.231939
				CHANNELS 3 Xrotation Yrotation Zrotation 
				End Site
				{
					OFFSET 0.000000 -2.463878 4.653993
				}
			}
		}
	}
}
MOTION
Frames:	12
Frame Time:	0.03333333
0.000000 41.00000 0.000000 0.000000 0.000000 0.000000 0.000000 0.000000 0.000000 0.000000 0.000000 0.000000 0.000000 0.000000 0.000000 0.000000 0.000000 0.000000 0.000000 0.000000 0.000000 -80.00000 0.000000 0.000000 0.000000 0.000000 0.000000 0.000000 0.000000 0.000000 0.000000 0.000000 0.000000 80.00000 0.000000 0.000000 0.000000 0.000000 0.000000 0.000000 0.000000 0.000000 0.000000 0.000000 0.000000 0.000000 0.000000 0.000000 0.000000 0.000000 0.000000 0.000000 0.000000 0.000000 0.000000 0.000000 0.000000 0.000000 0.000000 0.000000 
0.000000 41.00000 0.000000 1.000000 0.000000 0.000000 1.000000 0.000000 0.000000 1.000000 0.000000 0.000000 1.000000 0.000000 0.000000 1.000000 0.000000 0.000000 0.000000 0.000000 1.000000 -80.00000 0.000000 0.000000 0.000000 0.000000 1.000000 0.000000 0.000000 1.000000 0.000000 0.000000 1.000000 80.00000 0.000000 0.000000 0.000000 0.000000 1.000000 0.000000 0.000000 1.000000 1.000000 0.000000 0.000000 1.000000 0.000000 0.000000 1.000000 0.000000 0.000000 1.000000 0.000000 0.000000 1.000000 0.000000 0.000000 1.000000 0.000000 0.000000 
0.1071429 40.92857 0.03571429 1.000000 0.000000 0.000000 1.000000 0.000000 0.000000 1.000000 0.000000 0.000000 1.000000 0.000000 0.000000 1.000000 0.000000 0.000000 0.000000 0.000000 1.000000 -79.10714 -2.714286 0.000000 -1.642857 0.000000 0.9642857 0.000000 0.000000 3.071429 0.000000 0.000000 1.000000 80.00000 -1.071429 0.000000 2.607143 0.000000 0.9642857 -1.071429 0.000000 2.035714 0.1785714 0.1785714 0.000000 1.357143 0.000000 0.000000 1.142857 0.000000 0.000000 0.9642857 -0.4642857 -1.785714 1.821429 0.000000 0.000000 0.2857143 0.000000 0.2857143 
0.2142857 40.85714 0.07142857 1.000000 0.000000 0.000000 1.000000 0.000000 0.000000 1.000000 0.000000 0.000000 1.000000 0.000000 0.000000 1.000000 0.000000 0.000000 0.000000 0.000000 1.000000 -78.21429 -5.428571 0.000000 -3.285714 0.000000 0.9285714 0.000000 0.000000 5.142857 0.000000 0.000000 1.000000 80.00000 -2.142857 0.000000 5.214286 0.000000 0.9285714 -2.142857 0.000000 3.071429 -0.6428571 0.3571429 0.000000 1.714286 0.000000 0.000000 1.285714 0.000000 0.000000 0.9285714 -0.9285714 -3.571429 2.642857 0.000000 0.000000 -0.4285714 0.000000 0.5714286 
0.3214286 40.78571 0.1071429 1.000000 0.000000 0.000000 1.000000 0.000000 0.000000 1.000000 0.000000 0.000000 1.000000 0.000000 0.000000 1.000000 0.000000 0.000000 0.000000 0.000000 1.000000 -77.32143 -8.142858 0.000000 -4.928571 0.000000 0.8928571 0.000000 0.000000 7.214286 0.000000 0.000000 1.000000 80.00000 -3.214286 0.000000 7.821429 0.000000 0.8928571 -3.214286 0.000000 4.107143 -1.464286 0.5357143 0.000000 2.071429 0.000000 0.000000 1.428571 0.000000 0.000000 0.8928571 -1.392857 -5.357143 3.464286 0.000000 0.000000 -1.142857 0.000000 0.8571429 
0.4285714 40.71429 0.1428571 1.000000 0.000000 0.000000 1.000000 0.000000 0.000000 1.000000 0.000000 0.000000 1.000000 0.000000 0.000000 1.000000 0.000000 0.000000 0.000000 0.000000 1.000000 -76.42857 -10.85714 0.000000 -6.571429 0.000000 0.8571429 0.000000 0.000000 9.285714 0.000000 0.000000 1.000000 80.00000 -4.285714 0.000000 10.42857 0.000000 0.8571429 -4.285714 0.000000 5.142857 -2.285714 0.7142857 0.000000 2.428571 0.000000 0.000000 1.571429 0.000000 0.000000 0.8571429 -1.857143 -7.142857 4.285714 0.000000 0.000000 -1.857143 0.000000 1.142857 
0.5357143 40.64286 0.1785714 1.000000 0.000000 0.000000 1.000000 0.000000 0.000000 1.000000 0.000000 0.000000 1.000000 0.000000 0.000000 1.000000 0.000000 0.000000 0.000000 0.000000 1.000000 -75.53571 -13.57143 0.000000 -8.214286 0.000000 0.8214286 0.000000 0.000000 11.35714 0.000000 0.000000 1.000000 80.00000 -5.357143 0.000000 13.03571 0.000000 0.8214286 -5.357143 0.000000 6.178571 -3.107143 0.8928571 0.000000 2.785714 0.000000 0.000000 1.714286 0.000000 0.000000 0.8214286 -2.321429 -8.928572 5.107143 0.000000 0.000000 -2.571429 0.000000 1.428571 
0.6428571 40.57143 0.2142857 1.000000 0.000000 0.000000 1.000000 0.000000 0.000000 1.000000 0.000000 0.000000 1.000000 0.000000 0.000000 1.000000 0.000000 0.000000 0.000000 0.000000 1.000000 -74.64286 -16.28572 0.000000 -9.857142 0.000000 0.7857143 0.000000 0.000000 13.42857 0.000000 0.000000 1.000000 80.00000 -6.428571 0.000000 15.64286 0.000000 0.7857143 -6.428571 0.000000 7.214286 -3.928571 1.071429 0.000000 3.142857 0.000000 0.000000 1.857143 0.000000 0.000000 0.7857143 -2.785714 -10.71429 5.928571 0.000000 0.000000 -3.285714 0.000000 1.714286 
0.7500000 40.50000 0.2500000 1.000000 0.000000 0.000000 1.000000 0.000000 0.000000 1.000000 0.000000 0.000000 1.000000 0.000000 0.000000 1.000000 0.000000 0.000000 0.000000 0.000000 1.000000 -73.75000 -19.00000 0.000000 -11.50000 0.000000 0.7500000 0.000000 0.000000 15.50000 0.000000 0.000000 1.000000 80.00000 -7.500000 0.000000 18.25000 0.000000 0.7500000 -7.500000 0.000000 8.250000 -4.750000 1.250000 0.000000 3.500000 0.000000 0.000000 2.000000 0.000000 0.000000 0.7500000 -3.250000 -12.50000 6.750000 0.000000 0.000000 -4.000000 0.000000 2.000000 
0.8571429 40.42857 0.2857143 1.000000 0.000000 0.000000 1.000000 0.000000 0.000000 1.000000 0.000000 0.000000 1.000000 0.000000 0.000000 1.000000 0.000000 0.000000 0.000000 0.000000 1.000000 -72.85714 -21.71428 0.000000 -13.14286 0.000000 0.7142857 0.000000 0.000000 17.57143 0.000000 0.000000 1.000000 80.00000 -8.571428 0.000000 20.85714 0.000000 0.7142857 -8.571428 0.000000 9.285714 -5.571429 1.428571 0.000000 3.857143 0.000000 0.000000 2.142857 0.000000 0.000000 0.7142857 -3.714286 -14.28571 7.571429 0.000000 0.000000 -4.714286 0.000000 2.285714 
0.9642857 40.35714 0.3214286 1.000000 0.000000 0.000000 1.000000 0.000000 0.000000 1.000000 0.000000 0.000000 1.000000 0.000000 0.000000 1.000000 0.000000 0.000000 0.000000 0.000000 1.000000 -71.96429 -24.42857 0.000000 -14.78571 0.000000 0.6785714 0.000000 0.000000 19.64286 0.000000 0.000000 1.000000 80.00000 -9.642858 0.000000 23.46428 0.000000 0.6785714 -9.642858 0.000000 10.32143 -6.392857 1.607143 0.000000 4.214286 0.000000 0.000000 2.285714 0.000000 0.000000 0.6785714 -4.178571 -16.07143 8.392858 0.000000 0.000000 -5.428571 0.000000 2.571429 
1.071429 40.28571 0.3571429 1.000000 0.000000 0.000000 1.000000 0.000000 0.000000 1.000000 0.000000 0.000000 1.000000 0.000000 0.000000 1.000000 0.000000 0.000000 0.000000 0.000000 1.000000 -71.07143 -27.14286 0.000000 -16.42857 0.000000 0.6428571 0.000000 0.000000 21.71428 0.000000 0.000000 1.000000 80.00000 -10.71429 0.000000 26.07143 0.000000 0.6428571 -10.71429 0.000000 11.35714 -7.214286 1.785714 0.000000 4.571429 0.000000 0.000000 2.428571 0.000000 0.000000 0.6428571 -4.642857 -17.85714 9.214286 0.000000 0.000000 -6.142857 0.000000 2.857143 
